-----------------------------------------------------------------------------------
             Three Days of the Condor 1975 720p BRRip XVID AC3 Multisubs nekanilla
___________________________________________________________________________________

---------------------------------------INFO----------------------------------------

Movie name: Three Days of the Condor
Country and year of production: USA / 1975
Speech language / subtitle: English / Greek, Brazilian, Bulgarian, Croatian, Danish,
Dutch, English, Spanish, Finnish, French, Persian, Serbian SRT
Genre: Drama | Mystery 
Movie Length: 117 minutes
Writer: James Grady, Lorenzo Semple Jr., David Rayfiel
Directed by: Sydney Pollack
Nominated for 1 Oscar
___________________________________________________________________________________

---------------------------------------PLOT----------------------------------------
A bookish CIA researcher finds all his co-workers dead, and must outwit those responsible until he figures out who he can really trust.
___________________________________________________________________________________

---------------------------------------CAST----------------------------------------

Robert Redford as Joseph Turner
Faye Dunaway as Kathy Hale
Cliff Robertson as J. Higgins
Max von Sydow as G. Joubert
John Houseman as Wabash
Addison Powell as Leonard Atwood
Tina Chen as Janice Chon
Hank Garrett as The Mailman
Carlin Glynn as Mae Barber
Patrick Gorman as Martin
___________________________________________________________________________________

------------------------------------MEDIA INFO-------------------------------------
     
                                 Includes sample
General
Complete name                  :Three Days of the Condor 1975 720p BRRip XVID AC3.avi
Format                         : AVI
Format/Info                    : Audio Video Interleave
Format profile                 : OpenDML
Format settings                : rec
File size                      : 2.95 GiB
Duration                       : 1h 57mn
Overall bit rate               : 3 607 Kbps
Writing application            : AVI-Mux GUI 1.17.8.3, Feb 16 201019:42:50

Video
ID                             : 0
Format                         : MPEG-4 Visual
Format profile                 : Advanced Simple@L5
Format settings, BVOP          : 2
Format settings, QPel          : No
Format settings, GMC           : No warppoints
Format settings, Matrix        : Default (H.263)
Codec ID                       : XVID
Codec ID/Hint                  : XviD
Duration                       : 1h 57mn
Bit rate                       : 3 153 Kbps
Width                          : 1 280 pixels
Height                         : 536 pixels
Display aspect ratio           : 2.40:1
Frame rate                     : 23.976 fps
Color space                    : YUV
Chroma subsampling             : 4:2:0
Bit depth                      : 8 bits
Scan type                      : Progressive
Compression mode               : Lossy
Bits/(Pixel*Frame)             : 0.192
Stream size                    : 2.58 GiB (87%)
Writing library                : XviD 1.2.1 (UTC 2008-12-04)

Audio
ID                             : 1
Format                         : AC-3
Format/Info                    : Audio Coding 3
Codec ID                       : 2000
Duration                       : 1h 57mn
Bit rate mode                  : Constant
Bit rate                       : 448 Kbps
Channel(s)                     : 6 channels
Sampling rate                  : 48.0 KHz
Compression mode               : Lossy
Stream size                    : 375 MiB (12%)
Alignment                      : Aligned on interleaves
Title                          : Three.Days.Of.The.Condor.1975
___________________________________________________________________________________

___________________________________________________________________________________

-----------------------------------SCREENSHOTS-------------------------------------
                          http://i.imgur.com/FbHxPzb.jpg
                          http://i.imgur.com/Sifd65A.png
                          http://i.imgur.com/nVK6rrD.png
                          http://i.imgur.com/skVryls.jpg
___________________________________________________________________________________

                                Source: Three Days Of The Condor 1975 BluRay1080p DTS x264 dxva-FraMeSToR

                                Rip   : By   nekanilla